<?xml version="1.0" encoding="UTF-8" standalone="no"?>
<!DOCTYPE svg PUBLIC "-//W3C//DTD SVG 1.1//EN"
 "http://www.w3.org/Graphics/SVG/1.1/DTD/svg11.dtd">
<!-- Generated by graphviz version 12.2.1 (20241206.2353)
 -->
<!-- Title: classes_Studies Pages: 1 -->
<svg width="539pt" height="509pt"
 viewBox="0.00 0.00 538.62 509.00" xmlns="http://www.w3.org/2000/svg" xmlns:xlink="http://www.w3.org/1999/xlink">
<g id="graph0" class="graph" transform="scale(1 1) rotate(0) translate(4 505)">
<title>classes_Studies</title>
<polygon fill="white" stroke="none" points="-4,4 -4,-505 534.62,-505 534.62,4 -4,4"/>
<!-- studies.dclp.DCLP3 -->
<g id="node1" class="node">
<title>studies.dclp.DCLP3</title>
<polygon fill="none" stroke="black" points="472.38,-73.5 472.38,-109.5 529.62,-109.5 529.62,-73.5 472.38,-73.5"/>
<text text-anchor="start" x="480.38" y="-86.45" font-family="Times,serif" font-size="14.00">DCLP3</text>
</g>
<!-- studies.studydataset.StudyDataset -->
<g id="node8" class="node">
<title>studies.studydataset.StudyDataset</title>
<polygon fill="none" stroke="black" points="81.75,-146.5 81.75,-500.5 408.25,-500.5 408.25,-146.5 81.75,-146.5"/>
<text text-anchor="start" x="209" y="-483.2" font-family="Times,serif" font-size="14.00">StudyDataset</text>
<polyline fill="none" stroke="black" points="81.75,-476 408.25,-476"/>
<text text-anchor="start" x="95" y="-458.7" font-family="Times,serif" font-size="14.00">COL_NAME_BASAL_RATE : str</text>
<text text-anchor="start" x="95" y="-442.2" font-family="Times,serif" font-size="14.00">COL_NAME_BOLUS : str</text>
<text text-anchor="start" x="95" y="-425.7" font-family="Times,serif" font-size="14.00">COL_NAME_BOLUS_DELIVERY_DURATION : str</text>
<text text-anchor="start" x="95" y="-409.2" font-family="Times,serif" font-size="14.00">COL_NAME_CGM : str</text>
<text text-anchor="start" x="95" y="-392.7" font-family="Times,serif" font-size="14.00">COL_NAME_DATETIME : str</text>
<text text-anchor="start" x="95" y="-376.2" font-family="Times,serif" font-size="14.00">COL_NAME_PATIENT_ID : str</text>
<text text-anchor="start" x="95" y="-359.7" font-family="Times,serif" font-size="14.00">basal_event_history : NoneType</text>
<text text-anchor="start" x="95" y="-343.2" font-family="Times,serif" font-size="14.00">bolus_event_history : NoneType</text>
<text text-anchor="start" x="95" y="-326.7" font-family="Times,serif" font-size="14.00">cgm_history : NoneType</text>
<text text-anchor="start" x="95" y="-310.2" font-family="Times,serif" font-size="14.00">data_loaded : bool</text>
<text text-anchor="start" x="95" y="-293.7" font-family="Times,serif" font-size="14.00">study_name</text>
<text text-anchor="start" x="95" y="-277.2" font-family="Times,serif" font-size="14.00">study_path</text>
<polyline fill="none" stroke="black" points="81.75,-270 408.25,-270"/>
<text text-anchor="start" x="89.75" y="-252.7" font-family="Times,serif" font-size="14.00">extract_basal_event_history()</text>
<text text-anchor="start" x="89.75" y="-236.2" font-family="Times,serif" font-size="14.00">extract_bolus_event_history()</text>
<text text-anchor="start" x="89.75" y="-219.7" font-family="Times,serif" font-size="14.00">extract_cgm_history()</text>
<text text-anchor="start" x="89.75" y="-203.2" font-family="Times,serif" font-size="14.00">load_data(subset)</text>
<text text-anchor="start" x="89.75" y="-186.7" font-family="Times,serif" font-size="14.00">save_basal_event_history_to_file(out_path, compressed)</text>
<text text-anchor="start" x="89.75" y="-170.2" font-family="Times,serif" font-size="14.00">save_bolus_event_history_to_file(out_path, compressed)</text>
<text text-anchor="start" x="89.75" y="-153.7" font-family="Times,serif" font-size="14.00">save_cgm_to_file(out_path, compressed)</text>
</g>
<!-- studies.dclp.DCLP3&#45;&gt;studies.studydataset.StudyDataset -->
<g id="edge1" class="edge">
<title>studies.dclp.DCLP3&#45;&gt;studies.studydataset.StudyDataset</title>
<path fill="none" stroke="black" d="M481.76,-109.79C466.39,-123.6 443.17,-144.46 417.18,-167.8"/>
<polygon fill="none" stroke="black" points="414.88,-165.17 409.78,-174.45 419.56,-170.37 414.88,-165.17"/>
</g>
<!-- studies.dclp.DCLP5 -->
<g id="node2" class="node">
<title>studies.dclp.DCLP5</title>
<polygon fill="none" stroke="black" points="473.38,-0.5 473.38,-36.5 530.62,-36.5 530.62,-0.5 473.38,-0.5"/>
<text text-anchor="start" x="481.38" y="-13.45" font-family="Times,serif" font-size="14.00">DCLP5</text>
</g>
<!-- studies.dclp.DCLP5&#45;&gt;studies.dclp.DCLP3 -->
<g id="edge2" class="edge">
<title>studies.dclp.DCLP5&#45;&gt;studies.dclp.DCLP3</title>
<path fill="none" stroke="black" d="M501.76,-36.69C501.65,-44.27 501.52,-53.4 501.4,-61.96"/>
<polygon fill="none" stroke="black" points="497.9,-61.91 501.26,-71.96 504.9,-62.01 497.9,-61.91"/>
</g>
<!-- studies.flair.Flair -->
<g id="node3" class="node">
<title>studies.flair.Flair</title>
<polygon fill="none" stroke="black" points="0,-73.5 0,-109.5 54,-109.5 54,-73.5 0,-73.5"/>
<text text-anchor="start" x="14" y="-86.45" font-family="Times,serif" font-size="14.00">Flair</text>
</g>
<!-- studies.flair.Flair&#45;&gt;studies.studydataset.StudyDataset -->
<g id="edge3" class="edge">
<title>studies.flair.Flair&#45;&gt;studies.studydataset.StudyDataset</title>
<path fill="none" stroke="black" d="M43.39,-109.79C51.34,-118.18 61.76,-129.17 73.68,-141.75"/>
<polygon fill="none" stroke="black" points="70.82,-143.82 80.24,-148.67 75.9,-139.01 70.82,-143.82"/>
</g>
<!-- studies.iobp2.IOBP2 -->
<g id="node4" class="node">
<title>studies.iobp2.IOBP2</title>
<polygon fill="none" stroke="black" points="72,-73.5 72,-109.5 126,-109.5 126,-73.5 72,-73.5"/>
<text text-anchor="start" x="80" y="-86.45" font-family="Times,serif" font-size="14.00">IOBP2</text>
</g>
<!-- studies.iobp2.IOBP2&#45;&gt;studies.studydataset.StudyDataset -->
<g id="edge4" class="edge">
<title>studies.iobp2.IOBP2&#45;&gt;studies.studydataset.StudyDataset</title>
<path fill="none" stroke="black" d="M109.97,-109.79C114.59,-117.06 120.45,-126.29 127.12,-136.8"/>
<polygon fill="none" stroke="black" points="124.06,-138.51 132.38,-145.08 129.97,-134.76 124.06,-138.51"/>
</g>
<!-- studies.loop.Loop -->
<g id="node5" class="node">
<title>studies.loop.Loop</title>
<polygon fill="none" stroke="black" points="144,-73.5 144,-109.5 198,-109.5 198,-73.5 144,-73.5"/>
<text text-anchor="start" x="156.5" y="-86.45" font-family="Times,serif" font-size="14.00">Loop</text>
</g>
<!-- studies.loop.Loop&#45;&gt;studies.studydataset.StudyDataset -->
<g id="edge5" class="edge">
<title>studies.loop.Loop&#45;&gt;studies.studydataset.StudyDataset</title>
<path fill="none" stroke="black" d="M176.56,-109.79C178.81,-116.77 181.63,-125.54 184.85,-135.53"/>
<polygon fill="none" stroke="black" points="181.47,-136.47 187.86,-144.92 188.13,-134.32 181.47,-136.47"/>
</g>
<!-- studies.pedap.PEDAP -->
<g id="node6" class="node">
<title>studies.pedap.PEDAP</title>
<polygon fill="none" stroke="black" points="215.62,-73.5 215.62,-109.5 274.38,-109.5 274.38,-73.5 215.62,-73.5"/>
<text text-anchor="start" x="223.62" y="-86.45" font-family="Times,serif" font-size="14.00">PEDAP</text>
</g>
<!-- studies.pedap.PEDAP&#45;&gt;studies.studydataset.StudyDataset -->
<g id="edge6" class="edge">
<title>studies.pedap.PEDAP&#45;&gt;studies.studydataset.StudyDataset</title>
<path fill="none" stroke="black" d="M245,-109.79C245,-116.62 245,-125.17 245,-134.9"/>
<polygon fill="none" stroke="black" points="241.5,-134.84 245,-144.84 248.5,-134.84 241.5,-134.84"/>
</g>
<!-- studies.replacebg.ReplaceBG -->
<g id="node7" class="node">
<title>studies.replacebg.ReplaceBG</title>
<polygon fill="none" stroke="black" points="292.88,-73.5 292.88,-109.5 371.12,-109.5 371.12,-73.5 292.88,-73.5"/>
<text text-anchor="start" x="300.88" y="-86.45" font-family="Times,serif" font-size="14.00">ReplaceBG</text>
</g>
<!-- studies.replacebg.ReplaceBG&#45;&gt;studies.studydataset.StudyDataset -->
<g id="edge7" class="edge">
<title>studies.replacebg.ReplaceBG&#45;&gt;studies.studydataset.StudyDataset</title>
<path fill="none" stroke="black" d="M325.46,-109.79C322.79,-116.84 319.43,-125.73 315.6,-135.85"/>
<polygon fill="none" stroke="black" points="312.43,-134.35 312.16,-144.94 318.98,-136.83 312.43,-134.35"/>
</g>
<!-- studies.t1dexi.T1DEXI -->
<g id="node9" class="node">
<title>studies.t1dexi.T1DEXI</title>
<polygon fill="none" stroke="black" points="389.38,-73.5 389.38,-109.5 452.62,-109.5 452.62,-73.5 389.38,-73.5"/>
<text text-anchor="start" x="397.38" y="-86.45" font-family="Times,serif" font-size="14.00">T1DEXI</text>
</g>
<!-- studies.t1dexi.T1DEXI&#45;&gt;studies.studydataset.StudyDataset -->
<g id="edge8" class="edge">
<title>studies.t1dexi.T1DEXI&#45;&gt;studies.studydataset.StudyDataset</title>
<path fill="none" stroke="black" d="M407.77,-109.79C402.09,-117.21 394.86,-126.66 386.61,-137.44"/>
<polygon fill="none" stroke="black" points="384.01,-135.09 380.71,-145.15 389.56,-139.34 384.01,-135.09"/>
</g>
<!-- studies.t1dexi.T1DEXIP -->
<g id="node10" class="node">
<title>studies.t1dexi.T1DEXIP</title>
<polygon fill="none" stroke="black" points="384.62,-0.5 384.62,-36.5 455.38,-36.5 455.38,-0.5 384.62,-0.5"/>
<text text-anchor="start" x="392.62" y="-13.45" font-family="Times,serif" font-size="14.00">T1DEXIP</text>
</g>
<!-- studies.t1dexi.T1DEXIP&#45;&gt;studies.t1dexi.T1DEXI -->
<g id="edge9" class="edge">
<title>studies.t1dexi.T1DEXIP&#45;&gt;studies.t1dexi.T1DEXI</title>
<path fill="none" stroke="black" d="M420.24,-36.69C420.35,-44.27 420.48,-53.4 420.6,-61.96"/>
<polygon fill="none" stroke="black" points="417.1,-62.01 420.74,-71.96 424.1,-61.91 417.1,-62.01"/>
</g>
</g>
</svg>
